<svg width="28" height="28" viewBox="0 0 30 30" fill="none" xmlns="http://www.w3.org/2000/svg"><path d="M18 4.56797C18 3.69621 19.0377 3.24187 19.6783 3.83317L28.6783 12.1409C28.8834 12.3302 29 12.5966 29 12.8757V28C29 28.5523 28.5523 29 28 29H18V4.56797Z" fill="white" stroke="#EA001B" stroke-width="2"></path><path d="M23 17H29" stroke="#EA001B" stroke-width="2" stroke-linecap="round"></path><path d="M23 21H29" stroke="#EA001B" stroke-width="2" stroke-linecap="round"></path><path d="M23 25H29" stroke="#EA001B" stroke-width="2" stroke-linecap="round"></path><path d="M1 7.64399C1 7.43462 1.06572 7.23053 1.18788 7.0605L5.24302 1.41651C5.43089 1.15503 5.73317 1 6.05514 1H17C17.5523 1 18 1.44772 18 2V29H2C1.44772 29 1 28.5523 1 28V7.64399Z" fill="white" stroke="#EA001B" stroke-width="2"></path><rect x="5" y="8" width="3" height="3" rx="1" fill="white" stroke="#EA001B" stroke-width="2"></rect><rect x="5" y="15" width="3" height="3" rx="1" fill="white" stroke="#EA001B" stroke-width="2"></rect><rect x="11" y="8" width="3" height="3" rx="1" fill="white" stroke="#EA001B" stroke-width="2"></rect><rect x="11" y="15" width="3" height="3" rx="1" fill="white" stroke="#EA001B" stroke-width="2"></rect><path d="M7 24C7 23.4477 7.44772 23 8 23H11C11.5523 23 12 23.4477 12 24V29H7V24Z" fill="white" stroke="#EA001B" stroke-width="2"></path></svg>