<svg width="30" height="30" viewBox="0 0 30 30" fill="none" xmlns="http://www.w3.org/2000/svg"><circle cx="21" cy="6" r="5" fill="white" stroke="#EA001B" stroke-width="2"></circle><path d="M17 14.0744V17H13V11.741L17 14.0744Z" fill="white" stroke="#EA001B" stroke-width="2" stroke-linecap="round"></path><path d="M4 9H10C11.6569 9 13 10.3431 13 12V29H1V12C1 10.3431 2.34315 9 4 9Z" fill="white" stroke="#EA001B" stroke-width="2"></path><path d="M9 5V9H5V5C5 3.89543 5.89543 3 7 3C8.10457 3 9 3.89543 9 5Z" fill="white" stroke="#EA001B" stroke-width="2"></path><path d="M5 13H9" stroke="#EA001B" stroke-width="2" stroke-linecap="round"></path><path d="M5 17H9" stroke="#EA001B" stroke-width="2" stroke-linecap="round"></path><path d="M5 21H7" stroke="#EA001B" stroke-width="2" stroke-linecap="round"></path><path d="M5 25H7" stroke="#EA001B" stroke-width="2" stroke-linecap="round"></path><path d="M14 17H26C27.6569 17 29 18.3431 29 20V29H11V20C11 18.3431 12.3431 17 14 17Z" fill="white" stroke="#EA001B" stroke-width="2"></path><path d="M15 21H25" stroke="#EA001B" stroke-width="2" stroke-linecap="round"></path><path d="M15 25H25" stroke="#EA001B" stroke-width="2" stroke-linecap="round"></path></svg>